<?xml version="1.0" encoding="UTF-8" standalone="no"?>
<!DOCTYPE svg PUBLIC "-//W3C//DTD SVG 1.1//EN"
 "http://www.w3.org/Graphics/SVG/1.1/DTD/svg11.dtd">
<!-- Generated by graphviz version 2.50.0 (20211204.2007)
 -->
<!-- Title: G Pages: 1 -->
<svg width="591pt" height="404pt"
 viewBox="0.00 0.00 591.00 404.00" xmlns="http://www.w3.org/2000/svg" xmlns:xlink="http://www.w3.org/1999/xlink">
<g id="graph0" class="graph" transform="scale(1 1) rotate(0) translate(4 400)">
<title>G</title>
<polygon fill="white" stroke="transparent" points="-4,4 -4,-400 587,-400 587,4 -4,4"/>
<!-- 0_0 -->
<g id="node1" class="node">
<title>0_0</title>
<polygon fill="none" stroke="black" points="54,-396 0,-396 0,-360 54,-360 54,-396"/>
<text text-anchor="middle" x="27" y="-374.3" font-family="Times New Roman,serif" font-size="14.00">0_0</text>
</g>
<!-- 0_1 -->
<g id="node2" class="node">
<title>0_1</title>
<polygon fill="none" stroke="black" points="130,-396 76,-396 76,-360 130,-360 130,-396"/>
<text text-anchor="middle" x="103" y="-374.3" font-family="Times New Roman,serif" font-size="14.00">0_1</text>
</g>
<!-- 0_0&#45;&gt;0_1 -->
<g id="edge1" class="edge">
<title>0_0&#45;&gt;0_1</title>
<path fill="none" stroke="black" d="M54.02,-378C57.88,-378 61.74,-378 65.6,-378"/>
<polygon fill="black" stroke="black" points="65.83,-381.5 75.83,-378 65.83,-374.5 65.83,-381.5"/>
</g>
<!-- 1_0 -->
<g id="node9" class="node">
<title>1_0</title>
<polygon fill="none" stroke="black" points="54,-324 0,-324 0,-288 54,-288 54,-324"/>
<text text-anchor="middle" x="27" y="-302.3" font-family="Times New Roman,serif" font-size="14.00">1_0</text>
</g>
<!-- 0_0&#45;&gt;1_0 -->
<g id="edge8" class="edge">
<title>0_0&#45;&gt;1_0</title>
<path fill="none" stroke="black" d="M27,-359.7C27,-351.98 27,-342.71 27,-334.11"/>
<polygon fill="black" stroke="black" points="30.5,-334.1 27,-324.1 23.5,-334.1 30.5,-334.1"/>
</g>
<!-- 0_2 -->
<g id="node3" class="node">
<title>0_2</title>
<polygon fill="none" stroke="black" points="209,-396 155,-396 155,-360 209,-360 209,-396"/>
<text text-anchor="middle" x="182" y="-374.3" font-family="Times New Roman,serif" font-size="14.00">0_2</text>
</g>
<!-- 0_1&#45;&gt;0_2 -->
<g id="edge2" class="edge">
<title>0_1&#45;&gt;0_2</title>
<path fill="none" stroke="black" d="M130.16,-378C135.05,-378 139.94,-378 144.83,-378"/>
<polygon fill="black" stroke="black" points="144.86,-381.5 154.86,-378 144.86,-374.5 144.86,-381.5"/>
</g>
<!-- 1_1 -->
<g id="node10" class="node">
<title>1_1</title>
<polygon fill="none" stroke="black" points="133.5,-324 72.5,-324 72.5,-288 133.5,-288 133.5,-324"/>
<text text-anchor="middle" x="103" y="-302.3" font-family="Times New Roman,serif" font-size="14.00">juan.1&#45;1</text>
</g>
<!-- 0_1&#45;&gt;1_1 -->
<g id="edge9" class="edge">
<title>0_1&#45;&gt;1_1</title>
<path fill="none" stroke="black" d="M97.08,-359.7C96.29,-351.98 96.06,-342.71 96.4,-334.11"/>
<polygon fill="black" stroke="black" points="99.9,-334.32 97.1,-324.1 92.92,-333.84 99.9,-334.32"/>
</g>
<!-- 0_3 -->
<g id="node4" class="node">
<title>0_3</title>
<polygon fill="none" stroke="black" points="288,-396 234,-396 234,-360 288,-360 288,-396"/>
<text text-anchor="middle" x="261" y="-374.3" font-family="Times New Roman,serif" font-size="14.00">0_3</text>
</g>
<!-- 0_2&#45;&gt;0_3 -->
<g id="edge3" class="edge">
<title>0_2&#45;&gt;0_3</title>
<path fill="none" stroke="black" d="M209.16,-378C214.05,-378 218.94,-378 223.83,-378"/>
<polygon fill="black" stroke="black" points="223.86,-381.5 233.86,-378 223.86,-374.5 223.86,-381.5"/>
</g>
<!-- 1_2 -->
<g id="node11" class="node">
<title>1_2</title>
<polygon fill="none" stroke="black" points="212.5,-324 151.5,-324 151.5,-288 212.5,-288 212.5,-324"/>
<text text-anchor="middle" x="182" y="-302.3" font-family="Times New Roman,serif" font-size="14.00">juan.2&#45;2</text>
</g>
<!-- 0_2&#45;&gt;1_2 -->
<g id="edge13" class="edge">
<title>0_2&#45;&gt;1_2</title>
<path fill="none" stroke="black" d="M176.08,-359.7C175.29,-351.98 175.06,-342.71 175.4,-334.11"/>
<polygon fill="black" stroke="black" points="178.9,-334.32 176.1,-324.1 171.92,-333.84 178.9,-334.32"/>
</g>
<!-- 0_4 -->
<g id="node5" class="node">
<title>0_4</title>
<polygon fill="none" stroke="black" points="367,-396 313,-396 313,-360 367,-360 367,-396"/>
<text text-anchor="middle" x="340" y="-374.3" font-family="Times New Roman,serif" font-size="14.00">0_4</text>
</g>
<!-- 0_3&#45;&gt;0_4 -->
<g id="edge4" class="edge">
<title>0_3&#45;&gt;0_4</title>
<path fill="none" stroke="black" d="M288.16,-378C293.05,-378 297.94,-378 302.83,-378"/>
<polygon fill="black" stroke="black" points="302.86,-381.5 312.86,-378 302.86,-374.5 302.86,-381.5"/>
</g>
<!-- 1_3 -->
<g id="node12" class="node">
<title>1_3</title>
<polygon fill="none" stroke="black" points="291.5,-324 230.5,-324 230.5,-288 291.5,-288 291.5,-324"/>
<text text-anchor="middle" x="261" y="-302.3" font-family="Times New Roman,serif" font-size="14.00">juan.2&#45;2</text>
</g>
<!-- 0_3&#45;&gt;1_3 -->
<g id="edge17" class="edge">
<title>0_3&#45;&gt;1_3</title>
<path fill="none" stroke="black" d="M255.08,-359.7C254.29,-351.98 254.06,-342.71 254.4,-334.11"/>
<polygon fill="black" stroke="black" points="257.9,-334.32 255.1,-324.1 250.92,-333.84 257.9,-334.32"/>
</g>
<!-- 0_5 -->
<g id="node6" class="node">
<title>0_5</title>
<polygon fill="none" stroke="black" points="439,-396 385,-396 385,-360 439,-360 439,-396"/>
<text text-anchor="middle" x="412" y="-374.3" font-family="Times New Roman,serif" font-size="14.00">0_5</text>
</g>
<!-- 0_4&#45;&gt;0_5 -->
<g id="edge5" class="edge">
<title>0_4&#45;&gt;0_5</title>
<path fill="none" stroke="black" d="M367.28,-378C369.74,-378 372.19,-378 374.65,-378"/>
<polygon fill="black" stroke="black" points="374.75,-381.5 384.75,-378 374.75,-374.5 374.75,-381.5"/>
</g>
<!-- 1_4 -->
<g id="node13" class="node">
<title>1_4</title>
<polygon fill="none" stroke="black" points="370.5,-324 309.5,-324 309.5,-288 370.5,-288 370.5,-324"/>
<text text-anchor="middle" x="340" y="-302.3" font-family="Times New Roman,serif" font-size="14.00">juan.2&#45;2</text>
</g>
<!-- 0_4&#45;&gt;1_4 -->
<g id="edge21" class="edge">
<title>0_4&#45;&gt;1_4</title>
<path fill="none" stroke="black" d="M334.08,-359.7C333.29,-351.98 333.06,-342.71 333.4,-334.11"/>
<polygon fill="black" stroke="black" points="336.9,-334.32 334.1,-324.1 329.92,-333.84 336.9,-334.32"/>
</g>
<!-- 0_10 -->
<g id="node7" class="node">
<title>0_10</title>
<polygon fill="none" stroke="black" points="511,-396 457,-396 457,-360 511,-360 511,-396"/>
<text text-anchor="middle" x="484" y="-374.3" font-family="Times New Roman,serif" font-size="14.00">0_10</text>
</g>
<!-- 0_5&#45;&gt;0_10 -->
<g id="edge6" class="edge">
<title>0_5&#45;&gt;0_10</title>
<path fill="none" stroke="black" d="M439.28,-378C441.74,-378 444.19,-378 446.65,-378"/>
<polygon fill="black" stroke="black" points="446.75,-381.5 456.75,-378 446.75,-374.5 446.75,-381.5"/>
</g>
<!-- 4_5 -->
<g id="node17" class="node">
<title>4_5</title>
<polygon fill="none" stroke="black" points="442.5,-180 381.5,-180 381.5,-144 442.5,-144 442.5,-180"/>
<text text-anchor="middle" x="412" y="-158.3" font-family="Times New Roman,serif" font-size="14.00">juan.4&#45;5</text>
</g>
<!-- 0_5&#45;&gt;4_5 -->
<g id="edge31" class="edge">
<title>0_5&#45;&gt;4_5</title>
<path fill="none" stroke="black" d="M408.12,-359.85C404.59,-322.83 404.32,-235.18 407.31,-190.39"/>
<polygon fill="black" stroke="black" points="410.81,-190.48 408.11,-180.23 403.83,-189.92 410.81,-190.48"/>
</g>
<!-- 0_13 -->
<g id="node8" class="node">
<title>0_13</title>
<polygon fill="none" stroke="black" points="583,-396 529,-396 529,-360 583,-360 583,-396"/>
<text text-anchor="middle" x="556" y="-374.3" font-family="Times New Roman,serif" font-size="14.00">0_13</text>
</g>
<!-- 0_10&#45;&gt;0_13 -->
<g id="edge7" class="edge">
<title>0_10&#45;&gt;0_13</title>
<path fill="none" stroke="black" d="M511.28,-378C513.74,-378 516.19,-378 518.65,-378"/>
<polygon fill="black" stroke="black" points="518.75,-381.5 528.75,-378 518.75,-374.5 518.75,-381.5"/>
</g>
<!-- 10_10 -->
<g id="node21" class="node">
<title>10_10</title>
<polygon fill="none" stroke="black" points="521,-36 447,-36 447,0 521,0 521,-36"/>
<text text-anchor="middle" x="484" y="-14.3" font-family="Times New Roman,serif" font-size="14.00">juan.10&#45;10</text>
</g>
<!-- 0_10&#45;&gt;10_10 -->
<g id="edge41" class="edge">
<title>0_10&#45;&gt;10_10</title>
<path fill="none" stroke="black" d="M478.29,-359.95C475,-333.29 475,-280.11 475,-235 475,-235 475,-235 475,-161 475,-121 475,-74.65 477.29,-46.08"/>
<polygon fill="black" stroke="black" points="480.78,-46.35 478.29,-36.05 473.82,-45.65 480.78,-46.35"/>
</g>
<!-- 1_0&#45;&gt;1_1 -->
<g id="edge11" class="edge">
<title>1_0&#45;&gt;1_1</title>
<path fill="none" stroke="black" d="M54.02,-293.63C56.79,-293.06 59.56,-292.7 62.34,-292.57"/>
<polygon fill="black" stroke="black" points="62.24,-296.07 72.38,-293.01 62.55,-289.07 62.24,-296.07"/>
</g>
<!-- 2_0 -->
<g id="node14" class="node">
<title>2_0</title>
<polygon fill="none" stroke="black" points="54,-252 0,-252 0,-216 54,-216 54,-252"/>
<text text-anchor="middle" x="27" y="-230.3" font-family="Times New Roman,serif" font-size="14.00">2_0</text>
</g>
<!-- 1_0&#45;&gt;2_0 -->
<g id="edge25" class="edge">
<title>1_0&#45;&gt;2_0</title>
<path fill="none" stroke="black" d="M27,-287.7C27,-279.98 27,-270.71 27,-262.11"/>
<polygon fill="black" stroke="black" points="30.5,-262.1 27,-252.1 23.5,-262.1 30.5,-262.1"/>
</g>
<!-- 1_1&#45;&gt;0_1 -->
<g id="edge10" class="edge">
<title>1_1&#45;&gt;0_1</title>
<path fill="none" stroke="black" d="M108.9,-324.1C109.7,-331.79 109.94,-341.05 109.6,-349.67"/>
<polygon fill="black" stroke="black" points="106.11,-349.48 108.92,-359.7 113.09,-349.96 106.11,-349.48"/>
</g>
<!-- 1_1&#45;&gt;1_0 -->
<g id="edge12" class="edge">
<title>1_1&#45;&gt;1_0</title>
<path fill="none" stroke="black" d="M72.38,-318.99C69.61,-319.37 66.84,-319.54 64.06,-319.49"/>
<polygon fill="black" stroke="black" points="64.34,-316 54.02,-318.37 63.57,-322.96 64.34,-316"/>
</g>
<!-- 1_1&#45;&gt;1_2 -->
<g id="edge15" class="edge">
<title>1_1&#45;&gt;1_2</title>
<path fill="none" stroke="black" d="M133.55,-293.19C136.15,-292.79 138.74,-292.56 141.33,-292.51"/>
<polygon fill="black" stroke="black" points="141.13,-296.01 151.34,-293.18 141.59,-289.02 141.13,-296.01"/>
</g>
<!-- 1_2&#45;&gt;0_2 -->
<g id="edge14" class="edge">
<title>1_2&#45;&gt;0_2</title>
<path fill="none" stroke="black" d="M187.9,-324.1C188.7,-331.79 188.94,-341.05 188.6,-349.67"/>
<polygon fill="black" stroke="black" points="185.11,-349.48 187.92,-359.7 192.09,-349.96 185.11,-349.48"/>
</g>
<!-- 1_2&#45;&gt;1_1 -->
<g id="edge16" class="edge">
<title>1_2&#45;&gt;1_1</title>
<path fill="none" stroke="black" d="M151.34,-318.82C148.75,-319.22 146.15,-319.44 143.56,-319.49"/>
<polygon fill="black" stroke="black" points="143.77,-316 133.55,-318.81 143.29,-322.98 143.77,-316"/>
</g>
<!-- 1_2&#45;&gt;1_3 -->
<g id="edge19" class="edge">
<title>1_2&#45;&gt;1_3</title>
<path fill="none" stroke="black" d="M212.55,-293.19C215.15,-292.79 217.74,-292.56 220.33,-292.51"/>
<polygon fill="black" stroke="black" points="220.13,-296.01 230.34,-293.18 220.59,-289.02 220.13,-296.01"/>
</g>
<!-- 2_2 -->
<g id="node15" class="node">
<title>2_2</title>
<polygon fill="none" stroke="black" points="212.5,-252 151.5,-252 151.5,-216 212.5,-216 212.5,-252"/>
<text text-anchor="middle" x="182" y="-230.3" font-family="Times New Roman,serif" font-size="14.00">juan.2&#45;2</text>
</g>
<!-- 1_2&#45;&gt;2_2 -->
<g id="edge26" class="edge">
<title>1_2&#45;&gt;2_2</title>
<path fill="none" stroke="black" d="M176.08,-287.7C175.29,-279.98 175.06,-270.71 175.4,-262.11"/>
<polygon fill="black" stroke="black" points="178.9,-262.32 176.1,-252.1 171.92,-261.84 178.9,-262.32"/>
</g>
<!-- 1_3&#45;&gt;0_3 -->
<g id="edge18" class="edge">
<title>1_3&#45;&gt;0_3</title>
<path fill="none" stroke="black" d="M266.9,-324.1C267.7,-331.79 267.94,-341.05 267.6,-349.67"/>
<polygon fill="black" stroke="black" points="264.11,-349.48 266.92,-359.7 271.09,-349.96 264.11,-349.48"/>
</g>
<!-- 1_3&#45;&gt;1_2 -->
<g id="edge20" class="edge">
<title>1_3&#45;&gt;1_2</title>
<path fill="none" stroke="black" d="M230.34,-318.82C227.75,-319.22 225.15,-319.44 222.56,-319.49"/>
<polygon fill="black" stroke="black" points="222.77,-316 212.55,-318.81 222.29,-322.98 222.77,-316"/>
</g>
<!-- 1_3&#45;&gt;1_4 -->
<g id="edge23" class="edge">
<title>1_3&#45;&gt;1_4</title>
<path fill="none" stroke="black" d="M291.55,-293.19C294.15,-292.79 296.74,-292.56 299.33,-292.51"/>
<polygon fill="black" stroke="black" points="299.13,-296.01 309.34,-293.18 299.59,-289.02 299.13,-296.01"/>
</g>
<!-- 1_4&#45;&gt;0_4 -->
<g id="edge22" class="edge">
<title>1_4&#45;&gt;0_4</title>
<path fill="none" stroke="black" d="M345.9,-324.1C346.7,-331.79 346.94,-341.05 346.6,-349.67"/>
<polygon fill="black" stroke="black" points="343.11,-349.48 345.92,-359.7 350.09,-349.96 343.11,-349.48"/>
</g>
<!-- 1_4&#45;&gt;1_3 -->
<g id="edge24" class="edge">
<title>1_4&#45;&gt;1_3</title>
<path fill="none" stroke="black" d="M309.34,-318.82C306.75,-319.22 304.15,-319.44 301.56,-319.49"/>
<polygon fill="black" stroke="black" points="301.77,-316 291.55,-318.81 301.29,-322.98 301.77,-316"/>
</g>
<!-- 5_4 -->
<g id="node19" class="node">
<title>5_4</title>
<polygon fill="none" stroke="black" points="370.5,-108 309.5,-108 309.5,-72 370.5,-72 370.5,-108"/>
<text text-anchor="middle" x="340" y="-86.3" font-family="Times New Roman,serif" font-size="14.00">juan.5&#45;4</text>
</g>
<!-- 1_4&#45;&gt;5_4 -->
<g id="edge36" class="edge">
<title>1_4&#45;&gt;5_4</title>
<path fill="none" stroke="black" d="M336.12,-287.85C332.59,-250.83 332.32,-163.18 335.31,-118.39"/>
<polygon fill="black" stroke="black" points="338.81,-118.48 336.11,-108.23 331.83,-117.92 338.81,-118.48"/>
</g>
<!-- 2_0&#45;&gt;2_2 -->
<g id="edge28" class="edge">
<title>2_0&#45;&gt;2_2</title>
<path fill="none" stroke="black" d="M54.25,-226.18C83.24,-219.63 112.23,-218.74 141.23,-223.53"/>
<polygon fill="black" stroke="black" points="140.59,-226.97 151.06,-225.37 141.87,-220.09 140.59,-226.97"/>
</g>
<!-- 4_0 -->
<g id="node16" class="node">
<title>4_0</title>
<polygon fill="none" stroke="black" points="54,-180 0,-180 0,-144 54,-144 54,-180"/>
<text text-anchor="middle" x="27" y="-158.3" font-family="Times New Roman,serif" font-size="14.00">4_0</text>
</g>
<!-- 2_0&#45;&gt;4_0 -->
<g id="edge30" class="edge">
<title>2_0&#45;&gt;4_0</title>
<path fill="none" stroke="black" d="M27,-215.7C27,-207.98 27,-198.71 27,-190.11"/>
<polygon fill="black" stroke="black" points="30.5,-190.1 27,-180.1 23.5,-190.1 30.5,-190.1"/>
</g>
<!-- 2_2&#45;&gt;1_2 -->
<g id="edge27" class="edge">
<title>2_2&#45;&gt;1_2</title>
<path fill="none" stroke="black" d="M187.9,-252.1C188.7,-259.79 188.94,-269.05 188.6,-277.67"/>
<polygon fill="black" stroke="black" points="185.11,-277.48 187.92,-287.7 192.09,-277.96 185.11,-277.48"/>
</g>
<!-- 2_2&#45;&gt;2_0 -->
<g id="edge29" class="edge">
<title>2_2&#45;&gt;2_0</title>
<path fill="none" stroke="black" d="M151.06,-242.63C122.07,-248.7 93.07,-249.1 64.08,-243.83"/>
<polygon fill="black" stroke="black" points="64.74,-240.39 54.25,-241.82 63.35,-247.25 64.74,-240.39"/>
</g>
<!-- 4_0&#45;&gt;4_5 -->
<g id="edge33" class="edge">
<title>4_0&#45;&gt;4_5</title>
<path fill="none" stroke="black" d="M54.07,-158.47C159.72,-145.74 265.37,-145.2 371.02,-156.86"/>
<polygon fill="black" stroke="black" points="370.91,-160.37 381.24,-158.03 371.7,-153.42 370.91,-160.37"/>
</g>
<!-- 5_0 -->
<g id="node18" class="node">
<title>5_0</title>
<polygon fill="none" stroke="black" points="54,-108 0,-108 0,-72 54,-72 54,-108"/>
<text text-anchor="middle" x="27" y="-86.3" font-family="Times New Roman,serif" font-size="14.00">5_0</text>
</g>
<!-- 4_0&#45;&gt;5_0 -->
<g id="edge35" class="edge">
<title>4_0&#45;&gt;5_0</title>
<path fill="none" stroke="black" d="M27,-143.7C27,-135.98 27,-126.71 27,-118.11"/>
<polygon fill="black" stroke="black" points="30.5,-118.1 27,-108.1 23.5,-118.1 30.5,-118.1"/>
</g>
<!-- 4_5&#45;&gt;0_5 -->
<g id="edge32" class="edge">
<title>4_5&#45;&gt;0_5</title>
<path fill="none" stroke="black" d="M415.89,-180.23C419.42,-217.32 419.68,-304.98 416.69,-349.71"/>
<polygon fill="black" stroke="black" points="413.18,-349.6 415.88,-359.85 420.16,-350.16 413.18,-349.6"/>
</g>
<!-- 4_5&#45;&gt;4_0 -->
<g id="edge34" class="edge">
<title>4_5&#45;&gt;4_0</title>
<path fill="none" stroke="black" d="M381.24,-165.97C275.59,-178.42 169.94,-178.67 64.29,-166.72"/>
<polygon fill="black" stroke="black" points="64.41,-163.21 54.07,-165.53 63.6,-170.17 64.41,-163.21"/>
</g>
<!-- 5_0&#45;&gt;5_4 -->
<g id="edge38" class="edge">
<title>5_0&#45;&gt;5_4</title>
<path fill="none" stroke="black" d="M54.2,-85.71C135.91,-74.07 217.62,-73.46 299.33,-83.9"/>
<polygon fill="black" stroke="black" points="298.92,-87.37 309.3,-85.22 299.85,-80.43 298.92,-87.37"/>
</g>
<!-- 10_0 -->
<g id="node20" class="node">
<title>10_0</title>
<polygon fill="none" stroke="black" points="54,-36 0,-36 0,0 54,0 54,-36"/>
<text text-anchor="middle" x="27" y="-14.3" font-family="Times New Roman,serif" font-size="14.00">10_0</text>
</g>
<!-- 5_0&#45;&gt;10_0 -->
<g id="edge40" class="edge">
<title>5_0&#45;&gt;10_0</title>
<path fill="none" stroke="black" d="M27,-71.7C27,-63.98 27,-54.71 27,-46.11"/>
<polygon fill="black" stroke="black" points="30.5,-46.1 27,-36.1 23.5,-46.1 30.5,-46.1"/>
</g>
<!-- 5_4&#45;&gt;1_4 -->
<g id="edge37" class="edge">
<title>5_4&#45;&gt;1_4</title>
<path fill="none" stroke="black" d="M343.89,-108.23C347.42,-145.32 347.68,-232.98 344.69,-277.71"/>
<polygon fill="black" stroke="black" points="341.18,-277.6 343.88,-287.85 348.16,-278.16 341.18,-277.6"/>
</g>
<!-- 5_4&#45;&gt;5_0 -->
<g id="edge39" class="edge">
<title>5_4&#45;&gt;5_0</title>
<path fill="none" stroke="black" d="M309.3,-94.78C227.59,-106.11 145.88,-106.4 64.17,-95.65"/>
<polygon fill="black" stroke="black" points="64.59,-92.18 54.2,-94.29 63.64,-99.11 64.59,-92.18"/>
</g>
<!-- 10_0&#45;&gt;10_10 -->
<g id="edge43" class="edge">
<title>10_0&#45;&gt;10_10</title>
<path fill="none" stroke="black" d="M54.22,-14.97C181.71,-1.71 309.2,-1.04 436.68,-12.99"/>
<polygon fill="black" stroke="black" points="436.36,-16.47 446.65,-13.95 437.03,-9.5 436.36,-16.47"/>
</g>
<!-- 10_10&#45;&gt;0_10 -->
<g id="edge42" class="edge">
<title>10_10&#45;&gt;0_10</title>
<path fill="none" stroke="black" d="M489.71,-36.05C493,-62.71 493,-115.89 493,-161 493,-235 493,-235 493,-235 493,-275 493,-321.35 490.71,-349.92"/>
<polygon fill="black" stroke="black" points="487.22,-349.65 489.71,-359.95 494.18,-350.35 487.22,-349.65"/>
</g>
<!-- 10_10&#45;&gt;10_0 -->
<g id="edge44" class="edge">
<title>10_10&#45;&gt;10_0</title>
<path fill="none" stroke="black" d="M446.65,-22.05C319.16,-34.65 191.67,-34.65 64.19,-22.04"/>
<polygon fill="black" stroke="black" points="64.53,-18.55 54.22,-21.03 63.82,-25.52 64.53,-18.55"/>
</g>
</g>
</svg>
